<svg id="visual" viewBox="0 0 900 675" width="900" height="675" xmlns="http://www.w3.org/2000/svg" xmlns:xlink="http://www.w3.org/1999/xlink" version="1.1"><path d="M0 487L21.5 487C43 487 86 487 128.8 486C171.7 485 214.3 483 257.2 477.5C300 472 343 463 385.8 455.3C428.7 447.7 471.3 441.3 514.2 445.2C557 449 600 463 642.8 457.5C685.7 452 728.3 427 771.2 417.3C814 407.7 857 413.3 878.5 416.2L900 419L900 676L878.5 676C857 676 814 676 771.2 676C728.3 676 685.7 676 642.8 676C600 676 557 676 514.2 676C471.3 676 428.7 676 385.8 676C343 676 300 676 257.2 676C214.3 676 171.7 676 128.8 676C86 676 43 676 21.5 676L0 676Z" fill="#fa7268"></path><path d="M0 453L21.5 456.8C43 460.7 86 468.3 128.8 469.2C171.7 470 214.3 464 257.2 468.2C300 472.3 343 486.7 385.8 489C428.7 491.3 471.3 481.7 514.2 476.7C557 471.7 600 471.3 642.8 474.2C685.7 477 728.3 483 771.2 491.7C814 500.3 857 511.7 878.5 517.3L900 523L900 676L878.5 676C857 676 814 676 771.2 676C728.3 676 685.7 676 642.8 676C600 676 557 676 514.2 676C471.3 676 428.7 676 385.8 676C343 676 300 676 257.2 676C214.3 676 171.7 676 128.8 676C86 676 43 676 21.5 676L0 676Z" fill="#ef5f67"></path><path d="M0 533L21.5 536C43 539 86 545 128.8 545.5C171.7 546 214.3 541 257.2 533.5C300 526 343 516 385.8 517.5C428.7 519 471.3 532 514.2 535.5C557 539 600 533 642.8 533.2C685.7 533.3 728.3 539.7 771.2 544.7C814 549.7 857 553.3 878.5 555.2L900 557L900 676L878.5 676C857 676 814 676 771.2 676C728.3 676 685.7 676 642.8 676C600 676 557 676 514.2 676C471.3 676 428.7 676 385.8 676C343 676 300 676 257.2 676C214.3 676 171.7 676 128.8 676C86 676 43 676 21.5 676L0 676Z" fill="#e34c67"></path><path d="M0 589L21.5 586.7C43 584.3 86 579.7 128.8 580.3C171.7 581 214.3 587 257.2 586.5C300 586 343 579 385.8 576.5C428.7 574 471.3 576 514.2 580.7C557 585.3 600 592.7 642.8 595.7C685.7 598.7 728.3 597.3 771.2 589.8C814 582.3 857 568.7 878.5 561.8L900 555L900 676L878.5 676C857 676 814 676 771.2 676C728.3 676 685.7 676 642.8 676C600 676 557 676 514.2 676C471.3 676 428.7 676 385.8 676C343 676 300 676 257.2 676C214.3 676 171.7 676 128.8 676C86 676 43 676 21.5 676L0 676Z" fill="#d53867"></path><path d="M0 645L21.5 642C43 639 86 633 128.8 626.5C171.7 620 214.3 613 257.2 609.5C300 606 343 606 385.8 607.8C428.7 609.7 471.3 613.3 514.2 614.3C557 615.3 600 613.7 642.8 616C685.7 618.3 728.3 624.7 771.2 622.3C814 620 857 609 878.5 603.5L900 598L900 676L878.5 676C857 676 814 676 771.2 676C728.3 676 685.7 676 642.8 676C600 676 557 676 514.2 676C471.3 676 428.7 676 385.8 676C343 676 300 676 257.2 676C214.3 676 171.7 676 128.8 676C86 676 43 676 21.5 676L0 676Z" fill="#c62368"></path></svg>